<?xml version="1.0" encoding="iso-8859-1"?>
<!-- Generator: Adobe Illustrator 19.0.0, SVG Export Plug-In . SVG Version: 6.00 Build 0)  -->
<svg version="1.1" id="Layer_1" xmlns="http://www.w3.org/2000/svg" xmlns:xlink="http://www.w3.org/1999/xlink" x="0px" y="0px"
	 viewBox="0 0 512 512" style="enable-background:new 0 0 512 512;" xml:space="preserve">
<g>
	<g>
		<path d="M399.874,74.052c-18.599-21.865-41.613-38.086-68.539-48.336V0H180.666v25.716c-26.924,10.25-49.939,26.47-68.539,48.336
			c-16.755,19.696-29.58,43.552-38.229,71.044H11.417v210.215h70.817c14.821,42.187,36.318,78.51,62.586,105.587
			C177.254,494.329,215.699,512,256.001,512s78.747-17.671,111.179-51.1c26.27-27.078,47.766-63.401,62.588-105.588h70.816V145.096
			h-62.479C429.455,117.604,416.629,93.748,399.874,74.052z M331.335,62.09c38.784,19.026,59.933,52.13,71.461,83.006h-71.461V62.09
			z M214.059,33.391h83.884v111.705h-83.884V33.391z M180.666,62.09v83.006h-71.461C120.734,114.221,141.882,81.116,180.666,62.09z
			 M343.214,437.649c-26.368,27.179-55.711,40.96-87.214,40.96c-31.502,0-60.846-13.782-87.214-40.961
			c-20.645-21.28-38.022-49.458-50.928-82.336h276.284C381.236,388.19,363.859,416.368,343.214,437.649z M467.192,321.921H44.808
			V178.488h422.383V321.921z"/>
	</g>
</g>
<g>
	<g>
		<path d="M370.335,202.358H141.665c-26.382,0-47.846,21.464-47.846,47.846c0,26.382,21.464,47.846,47.846,47.846h228.669
			c26.383,0,47.846-21.464,47.846-47.846C418.181,223.822,396.717,202.358,370.335,202.358z M370.335,264.659H141.665
			c-7.971,0-14.455-6.485-14.455-14.455c0-7.971,6.485-14.455,14.455-14.455h228.669c7.971,0,14.455,6.485,14.455,14.455
			C384.79,258.175,378.305,264.659,370.335,264.659z"/>
	</g>
</g>
<g>
	<g>
		<circle cx="256.001" cy="89.244" r="21.476"/>
	</g>
</g>
<g>
	<g>
		<rect x="207.572" y="386.571" width="96.846" height="33.391"/>
	</g>
</g>
<g>
</g>
<g>
</g>
<g>
</g>
<g>
</g>
<g>
</g>
<g>
</g>
<g>
</g>
<g>
</g>
<g>
</g>
<g>
</g>
<g>
</g>
<g>
</g>
<g>
</g>
<g>
</g>
<g>
</g>
</svg>
